PathFileType	4	(X/Y/Z)	D:\telocate\uwb07-Unnamed.trc
DataRate	CameraRate	NumFrames	NumMarkers	Units	OrigDataRate	OrigDataStartFrame	OrigNumFrames
100.00	100.00	     212	0	mm	100.00	17362	     23149
Frame#	Time	
		

17362	173.610	2359.86060	70.95568	1785.97705	
17363	173.620	2359.62817	75.80110	1785.23816	
17364	173.630	2359.78906	81.86803	1783.85083	
17365	173.640	2358.85107	86.62798	1781.99475	
17366	173.650	2356.41406	90.10316	1778.91492	
17367	173.660	2358.03320	97.78513	1779.60547	
17368	173.670	2354.85498	101.08308	1775.80359	
17369	173.680	2354.27539	106.04539	1774.34021	
17370	173.690	2356.01587	113.05853	1774.32703	
17371	173.700	2358.92383	121.43713	1776.22729	
17372	173.710	2359.75391	127.31399	1775.65454	
17373	173.720	2359.98511	133.76471	1775.40479	
17374	173.730	2360.21436	139.01628	1774.96033	
17375	173.740	2356.71216	142.86879	1771.67688	
17376	173.750	2355.53687	148.05632	1770.41882	
17377	173.760	2353.88696	152.60466	1769.43494	
17378	173.770	2351.97778	158.45496	1768.02124	
17379	173.780	2358.79614	168.37779	1772.57959	
17380	173.790	2352.99316	170.86836	1768.33533	
17381	173.800	2352.31128	176.10623	1767.65735	
17382	173.810	2355.36133	183.28061	1769.84229	
17383	173.820	2356.38745	191.73427	1771.62854	
17384	173.830	2355.89014	196.90681	1771.63489	
17385	173.840	2354.20044	200.68248	1770.07434	
17386	173.850	2355.56079	208.55115	1772.01843	
17387	173.860	2355.73242	214.24663	1772.69873	
17388	173.870	2355.36011	221.10933	1773.96069	
17389	173.880	2354.76318	226.59612	1773.86829	
17390	173.890	2351.97144	229.91553	1772.37573	
17391	173.900	2352.17725	237.90962	1774.19116	
17392	173.910	2351.09521	243.01848	1775.10852	
17393	173.920	2347.91553	247.17509	1772.87317	
17394	173.930	2346.89819	252.46310	1773.47632	
17395	173.940	2344.81445	257.47839	1772.88196	
17396	173.950	2345.06396	264.35794	1774.92786	
17397	173.960	2344.61597	271.09323	1775.42017	
17398	173.970	2344.21826	276.96808	1776.95935	
17399	173.980	2345.88208	287.88278	1782.31995	
17400	173.990	2345.31323	294.37558	1782.93726	
17401	174.000	2343.64526	301.15131	1784.22937	
17402	174.010	2342.35156	307.86798	1785.38647	
17403	174.020	2340.19263	313.91086	1786.56067	
17404	174.030	2337.54468	321.12961	1787.23169	
17405	174.040	2334.82837	327.40854	1787.97583	
17406	174.050	2333.12500	334.06381	1788.58813	
17407	174.060	2334.70044	341.73154	1789.58240	
17408	174.070	2332.88770	347.99536	1790.45435	
17409	174.080	2330.74170	355.60052	1790.66272	
17410	174.090	2328.60474	361.84885	1791.94299	
17411	174.100	2326.82397	368.21805	1792.63135	
17412	174.110	2324.15698	374.75690	1793.65308	
17413	174.120	2321.35986	381.46152	1794.46008	
17414	174.130	2317.52075	387.47321	1795.31238	
17415	174.140	2312.27173	392.59424	1796.45740	
17416	174.150	2309.87891	400.31140	1797.04578	
17417	174.160	2311.15527	407.61191	1799.01892	
17418	174.170	2307.48340	414.73865	1799.00317	
17419	174.180	2304.28491	422.06708	1800.12354	
17420	174.190	2299.79102	428.84973	1800.10547	
17421	174.200	2295.94653	436.22418	1801.43970	
17422	174.210	2291.65649	442.84180	1801.73279	
17423	174.220	2287.75342	450.35071	1802.27991	
17424	174.230	2283.30762	457.05042	1803.17322	
17425	174.240	2279.25171	464.90994	1803.36902	
17426	174.250	2275.07861	472.09958	1803.00793	
17427	174.260	2268.73462	479.13855	1802.86365	
17428	174.270	2264.91504	487.00894	1802.18115	
17429	174.280	2260.46655	494.18097	1802.08606	
17430	174.290	2255.62256	501.81015	1801.60510	
17431	174.300	2249.79517	509.59225	1800.72375	
17432	174.310	2244.82813	517.01117	1799.89722	
17433	174.320	2239.98608	524.50385	1799.27783	
17434	174.330	2234.37793	532.07739	1798.11377	
17435	174.340	2229.77563	539.48260	1797.62097	
17436	174.350	2225.66309	548.00012	1796.52917	
17437	174.360	2221.13721	555.31604	1795.49048	
17438	174.370	2216.07446	562.53796	1794.15039	
17439	174.380	2210.58008	570.20251	1793.11206	
17440	174.390	2204.90186	576.71307	1791.23169	
17441	174.400	2200.03101	584.59930	1790.31567	
17442	174.410	2194.65625	591.01868	1788.55603	
17443	174.420	2190.31104	598.11346	1788.14282	
17444	174.430	2182.68677	604.10919	1786.58191	
17445	174.440	2181.10132	611.45044	1786.09167	
17446	174.450	2175.78711	617.64990	1785.29688	
17447	174.460	2170.63867	623.81866	1785.20959	
17448	174.470	2163.34399	629.44629	1784.11780	
17449	174.480	2158.32007	635.51917	1783.66284	
17450	174.490	2152.39282	640.91986	1783.29407	
17451	174.500	2147.42676	646.77972	1782.60132	
17452	174.510	2142.52344	652.38513	1782.03210	
17453	174.520	2139.41553	657.71149	1782.00354	
17454	174.530	2135.19751	662.92206	1781.82483	
17455	174.540	2130.78613	667.73328	1781.53247	
17456	174.550	2126.63940	672.44031	1781.88196	
17457	174.560	2122.01465	676.64960	1782.42261	
17458	174.570	2117.12939	680.67682	1782.95874	
17459	174.580	2109.91455	684.14166	1783.40405	
17460	174.590	2108.67676	688.34845	1783.90088	
17461	174.600	2102.44067	692.15076	1784.81543	
17462	174.610	2098.60645	696.08020	1785.94434	
17463	174.620	2097.43701	700.96436	1786.30127	
17464	174.630	2092.58228	704.88403	1786.94580	
17465	174.640	2088.34448	708.20001	1787.59973	
17466	174.650	2081.21777	711.65118	1788.21155	
17467	174.660	2075.69458	714.55176	1788.60242	
17468	174.670	2071.48730	718.46259	1788.84949	
17469	174.680	2067.00049	721.95496	1789.31934	
17470	174.690	2063.42261	725.97070	1789.90173	
17471	174.700	2059.90308	729.85785	1790.42969	
17472	174.710	2055.88818	732.75647	1790.60010	
17473	174.720	2051.66504	736.76349	1790.93652	
17474	174.730	2047.41895	740.07996	1790.95642	
17475	174.740	2043.17761	743.56281	1791.15662	
17476	174.750	2039.59973	747.61572	1790.56238	
17477	174.760	2036.48816	751.26135	1790.77686	
17478	174.770	2030.43103	754.21747	1789.87598	
17479	174.780	2029.96179	758.26007	1789.95313	
17480	174.790	2026.85168	761.48981	1789.85339	
17481	174.800	2023.60974	765.14807	1789.31824	
17482	174.810	2019.45959	768.52979	1788.83411	
17483	174.820	2014.26868	771.12396	1788.44104	
17484	174.830	2011.09644	774.45264	1788.32446	
17485	174.840	2007.63965	777.76154	1787.63867	
17486	174.850	2004.03064	781.04370	1787.04700	
17487	174.860	2000.91895	784.10797	1786.97449	
17488	174.870	1997.88794	787.17017	1786.22046	
17489	174.880	1994.32227	790.38501	1786.19604	
17490	174.890	1992.12280	793.32098	1785.94434	
17491	174.900	1989.24744	796.19446	1786.34070	
17492	174.910	1985.90027	798.97278	1786.44910	
17493	174.920	1982.74438	802.07721	1786.49854	
17494	174.930	1979.26074	804.60693	1786.63770	
17495	174.940	1976.04272	807.19861	1786.93921	
17496	174.950	1970.73181	808.94678	1787.25439	
17497	174.960	1970.07605	812.08759	1788.07947	
17498	174.970	1967.42896	814.65955	1788.51465	
17499	174.980	1964.42993	817.16028	1788.92249	
17500	174.990	1960.24158	819.23615	1789.64001	
17501	175.000	1957.27881	821.91150	1790.75488	
17502	175.010	1954.41321	824.15833	1791.16589	
17503	175.020	1948.25525	826.33783	1791.73218	
17504	175.030	1945.24670	829.00256	1791.82471	
17505	175.040	1941.60925	831.57056	1792.11694	
17506	175.050	1938.46631	834.75507	1792.32068	
17507	175.060	1934.92505	837.54089	1792.66699	
17508	175.070	1932.09375	840.38129	1792.57715	
17509	175.080	1928.34058	843.98120	1792.72510	
17510	175.090	1925.92395	847.57739	1792.47192	
17511	175.100	1923.18896	850.98120	1792.22668	
17512	175.110	1920.13501	854.85834	1792.41553	
17513	175.120	1917.26794	858.52313	1791.46924	
17514	175.130	1914.47461	862.18732	1791.13306	
17515	175.140	1911.18030	866.20685	1790.79529	
17516	175.150	1907.97058	870.59155	1789.87048	
17517	175.160	1904.64709	874.59650	1789.09668	
17518	175.170	1899.03174	878.57983	1788.10791	
17519	175.180	1898.54041	883.58289	1787.57654	
17520	175.190	1896.64185	888.14099	1786.46619	
17521	175.200	1893.29370	892.86316	1785.18652	
17522	175.210	1890.18970	897.48065	1784.04407	
17523	175.220	1886.50854	902.45538	1783.05286	
17524	175.230	1882.90527	906.99713	1781.56372	
17525	175.240	1879.63318	912.08984	1780.31079	
17526	175.250	1876.37646	916.89752	1779.21094	
17527	175.260	1871.98047	921.48230	1777.68323	
17528	175.270	1866.08936	926.02417	1776.25098	
17529	175.280	1862.44690	930.74219	1774.54175	
17530	175.290	1858.15991	935.70605	1772.88159	
17531	175.300	1854.03381	940.29846	1771.15808	
17532	175.310	1850.02466	945.37634	1769.53601	
17533	175.320	1846.60803	950.46436	1768.01990	
17534	175.330	1842.47693	955.46588	1766.07422	
17535	175.340	1838.15637	960.93195	1764.40442	
17536	175.350	1833.37366	965.10272	1762.75244	
17537	175.360	1826.85950	969.60449	1761.05457	
17538	175.370	1820.36926	974.24884	1759.53101	
17539	175.380	1815.51953	978.68762	1758.15967	
17540	175.390	1811.37927	983.12836	1756.43860	
17541	175.400	1807.51221	987.73584	1755.80994	
17542	175.410	1801.90955	991.71863	1754.38635	
17543	175.420	1796.40942	995.48163	1753.74463	
17544	175.430	1790.70020	998.89020	1753.45374	
17545	175.440	1786.09546	1002.66125	1752.83569	
17546	175.450	1779.84802	1006.21600	1753.18408	
17547	175.460	1771.68469	1009.15039	1752.84729	
17548	175.470	1768.25964	1013.49109	1753.35706	
17549	175.480	1762.30701	1016.54327	1753.20972	
17550	175.490	1755.94788	1019.91132	1753.54138	
17551	175.500	1747.33801	1022.53717	1753.95337	
17552	175.510	1740.49243	1026.08765	1754.26318	
17553	175.520	1734.36206	1029.40161	1755.10291	
17554	175.530	1728.18066	1032.88330	1755.85803	
17555	175.540	1721.77515	1035.79431	1756.55774	
17556	175.550	1715.52612	1038.71582	1757.53247	
17557	175.560	1705.15247	1041.20129	1758.66895	
17558	175.570	1699.67456	1044.36218	1759.26648	
17559	175.580	1692.81531	1047.35168	1760.48718	
17560	175.590	1686.03210	1049.96252	1761.84021	
17561	175.600	1679.46484	1053.00244	1762.71472	
17562	175.610	1672.91418	1056.12610	1763.99890	
17563	175.620	1663.35718	1058.68164	1764.78735	
17564	175.630	1656.39917	1061.65649	1765.79407	
17565	175.640	1649.07104	1064.54517	1767.21667	
17566	175.650	1642.73743	1067.61682	1768.44666	
17567	175.660	1635.18958	1070.16272	1769.41577	
17568	175.670	1628.72461	1073.02515	1770.61975	
17569	175.680	1622.12878	1076.23450	1771.42480	
17570	175.690	1613.22473	1078.97583	1772.35803	
17571	175.700	1609.05188	1082.39465	1773.48389	
17572	175.710	1601.52246	1085.30530	1774.06091	
17573	175.720	1592.20374	1087.94312	1774.95215	
